#!OML:ASF H:\LiuWeirdWalks\Patient Classification 1\Patient 1\Session 1\male.ASF
:FULLY-SPECIFIED
:DEGREES
243
root 0.0412753 17.1912 -7.25366 6.23766 16.2642 0.867329
lowerback 9.82233 -2.06575 -0.478661
upperback -1.66292 -2.46841 4.81555
thorax -7.04671 -1.07797 5.76865
lowerneck -19.0794 -2.97011 2.20846
upperneck 18.8281 -4.03861 -3.11797
head 8.93003 -2.07809 -1.95519
rclavicle 4.37326e-015 -1.59028e-015
rhumerus -32.6145 -32.6792 -54.7392
rradius 61.674
rwrist -7.0253
rhand -23.2553 5.52112
rfingers 7.12502
rthumb 3.19655 -24.4347
lclavicle 4.37326e-015 -1.59028e-015
lhumerus -44.062 -2.17129 83.4397
lradius 34.1775
lwrist 14.5887
lhand -5.84263 9.67439
lfingers 7.12502
lthumb 19.9836 38.6668
rfemur -41.6091 -2.01663 18.4256
rtibia 45.0872
rfoot -1.73071 -20.2346
rtoes -0.462898
lfemur 10.7458 -7.77333 -18.2361
ltibia 40.6097
lfoot 13.6718 -1.17353
ltoes -15.6709
244
root 0.0503954 17.2731 -7.02104 6.06512 16.4637 0.593757
lowerback 9.66279 -2.18437 -0.169614
upperback -1.74441 -2.57986 4.94422
thorax -7.03951 -1.14151 5.74219
lowerneck -19.0129 -3.03269 2.21623
upperneck 19.2074 -4.14078 -3.04893
head 9.04715 -2.11386 -1.95312
rclavicle 3.20043e-014 -8.26944e-014
rhumerus -33.674 -31.9729 -54.7617
rradius 59.5464
rwrist -7.21595
rhand -22.0265 4.4597
rfingers 7.12502
rthumb 4.38322 -25.4749
lclavicle 3.20043e-014 -8.26944e-014
lhumerus -44.0946 -4.93416 85.4712
lradius 35.3226
lwrist 14.6195
lhand -0.871071 7.5131
lfingers 7.12502
lthumb 24.7558 35.9311
rfemur -40.2207 -1.78454 18.8102
rtibia 44.5103
rfoot -2.38611 -20.7062
rtoes -0.301789
lfemur 9.29835 -7.67098 -17.7673
ltibia 43.1633
lfoot 13.9804 -0.109407
ltoes -14.2973
245
root 0.0619938 17.3551 -6.79177 5.89366 16.6128 0.300466
lowerback 9.46442 -2.28885 0.198713
upperback -1.7947 -2.67003 5.04974
thorax -6.98314 -1.1991 5.64951
lowerneck -18.972 -3.09722 2.24243
upperneck 19.5101 -4.24461 -3.01411
head 9.14142 -2.15341 -1.9649
rclavicle 2.14687e-014 -3.18055e-014
rhumerus -34.72 -31.2597 -54.8443
rradius 57.4736
rwrist -7.59712
rhand -20.8293 3.33131
rfingers 7.12502
rthumb 5.53914 -26.5763
lclavicle 2.14687e-014 -3.18055e-014
lhumerus -44.2387 -7.43186 87.2159
lradius 36.8275
lwrist 13.8711
lhand 3.89748 4.78853
lfingers 7.12502
lthumb 29.3178 32.4972
rfemur -38.8123 -1.57219 19.2328
rtibia 43.8294
rfoot -2.96244 -21.0935
rtoes -0.168863
lfemur 7.82952 -7.41675 -17.2836
ltibia 45.6253
lfoot 13.975 1.2124
ltoes -12.9274
246
root 0.0752474 17.4367 -6.56552 5.72884 16.7241 0.00979324
lowerback 9.22839 -2.38284 0.584691
upperback -1.82115 -2.74931 5.13691
thorax -6.88325 -1.25355 5.52153
lowerneck -18.9038 -3.15914 2.25497
upperneck 19.725 -4.34108 -2.97828
head 9.2012 -2.19109 -1.97052
rclavicle -3.12092e-014 2.70347e-014
rhumerus -35.7433 -30.5765 -54.9668
rradius 55.4353
rwrist -8.09013
rhand -19.6213 2.24623
rfingers 7.12502
rthumb 6.70544 -27.6276
lclavicle -3.12092e-014 2.70347e-014
lhumerus -44.4806 -9.62659 88.6855
lradius 38.6808
lwrist 12.5656
lhand 8.07668 1.77132
lfingers 7.12502
lthumb 33.2999 28.7078
rfemur -37.3901 -1.40787 19.6742
rtibia 43.0576
rfoot -3.4581 -21.3955
rtoes -0.0750518
lfemur 6.33938 -7.02915 -16.804
ltibia 47.96
lfoot 13.6875 2.54807
ltoes -11.5184
247
root 0.0884358 17.5174 -6.34172 5.5664 16.7852 -0.276127
lowerback 8.98054 -2.46166 0.954765
upperback -1.82712 -2.81463 5.21151
thorax -6.75668 -1.30117 5.38506
lowerneck -18.8575 -3.2194 2.26153
upperneck 19.9038 -4.43661 -2.93222
head 9.25298 -2.22788 -1.97124
rclavicle -6.16232e-014 1.59028e-015
rhumerus -36.7272 -29.9473 -55.1278
rradius 53.4249
rwrist -8.61048
rhand -18.3965 1.27681
rfingers 7.12502
rthumb 7.88769 -28.556
lclavicle -6.16232e-014 1.59028e-015
lhumerus -44.7828 -11.5149 89.8952
lradius 40.8725
lwrist 11.0423
lhand 11.4044 -1.06347
lfingers 7.12502
lthumb 36.4571 25.1394
rfemur -35.9581 -1.26897 20.1328
rtibia 42.209
rfoot -3.8698 -21.6319
rtoes -0.0282385
lfemur 4.84208 -6.51977 -16.3313
ltibia 50.1369
lfoot 13.1549 3.79541
ltoes -10.2955
248
root 0.10066 17.5961 -6.12064 5.404 16.7963 -0.536682
lowerback 8.74525 -2.52726 1.26988
upperback -1.8228 -2.87148 5.27697
thorax -6.62552 -1.34245 5.2689
lowerneck -18.8073 -3.28533 2.20646
upperneck 20.0459 -4.53651 -2.82481
head 9.29464 -2.26462 -1.94046
rclavicle -3.51849e-014 1.59028e-015
rhumerus -37.6578 -29.3977 -55.3052
rradius 51.4134
rwrist -9.01481
rhand -17.1702 0.425923
rfingers 7.12502
rthumb 9.07111 -29.359
lclavicle -3.51849e-014 1.59028e-015
lhumerus -45.122 -13.0989 90.8725
lradius 43.331
lwrist 9.52181
lhand 13.7921 -3.41211
lfingers 7.12502
lthumb 38.7135 22.1894
rfemur -34.5197 -1.13859 20.5815
rtibia 41.3085
rfoot -4.20051 -21.8254
rtoes -0.0283982
lfemur 3.3636 -5.91535 -15.8932
ltibia 52.1251
lfoot 12.4731 4.84964
ltoes -9.38336
249
root 0.110997 17.6721 -5.90254 5.23557 16.7589 -0.748493
lowerback 8.55327 -2.57409 1.50076
upperback -1.81204 -2.91406 5.3254
thorax -6.51046 -1.37327 5.18264
lowerneck -18.746 -3.34297 2.16677
upperneck 20.1466 -4.62897 -2.71958
head 9.31984 -2.29739 -1.91069
rclavicle -1.31198e-014 4.6118e-014
rhumerus -38.542 -28.9385 -55.4848
rradius 49.3979
rwrist -9.28403
rhand -15.9828 -0.3195
rfingers 7.12502
rthumb 10.2168 -30.0514
lclavicle -1.31198e-014 4.6118e-014
lhumerus -45.4794 -14.4352 91.6518
lradius 45.9892
lwrist 8.17126
lhand 15.2287 -5.17265
lfingers 7.12502
lthumb 40.0668 20.0332
rfemur -33.0742 -1.0124 20.993
rtibia 40.3817
rfoot -4.47278 -21.9847
rtoes -0.0606776
lfemur 1.92469 -5.25157 -15.5208
ltibia 53.905
lfoot 11.7728 5.6588
ltoes -8.75162
250
root 0.11954 17.7443 -5.68654 5.04584 16.6765 -0.889228
lowerback 8.42 -2.60703 1.62265
upperback -1.78844 -2.95051 5.3524
thorax -6.41148 -1.39705 5.13733
lowerneck -18.6747 -3.40145 2.09941
upperneck 20.2402 -4.72083 -2.58775
head 9.34244 -2.32899 -1.86675
rclavicle 1.07344e-014 1.90833e-014
rhumerus -39.3551 -28.5627 -55.6672
rradius 47.3514
rwrist -9.38355
rhand -14.8537 -0.942975
rfingers 7.12502
rthumb 11.3058 -30.6183
lclavicle 1.07344e-014 1.90833e-014
lhumerus -45.8324 -15.5624 92.2623
lradius 48.7578
lwrist 7.05443
lhand 15.7432 -6.38883
lfingers 7.12502
lthumb 40.5508 18.6687
rfemur -31.6059 -0.879829 21.3358
rtibia 39.4579
rfoot -4.70616 -22.1189
rtoes -0.129228
lfemur 0.572238 -4.56233 -15.2497
ltibia 55.4624
lfoot 11.1128 6.21601
ltoes -8.46044
251
root 0.125918 17.8118 -5.47283 4.83723 16.5427 -0.965545
lowerback 8.34672 -2.62248 1.6401
upperback -1.75528 -2.9743 5.35999
thorax -6.33314 -1.4108 5.13198
lowerneck -18.543 -3.43448 2.08107
upperneck 20.2274 -4.77659 -2.51365
head 9.31513 -2.3481 -1.84188
rclavicle -2.28602e-014 -2.22639e-014
rhumerus -40.1011 -28.2455 -55.8497
rradius 45.2803
rwrist -9.35945
rhand -13.8118 -1.47233
rfingers 7.12502
rthumb 12.3106 -31.0899
lclavicle -2.28602e-014 -2.22639e-014
lhumerus -46.165 -16.5156 92.7261
lradius 51.5747
lwrist 6.16163
lhand 15.4401 -7.12291
lfingers 7.12502
lthumb 40.2658 18.0224
rfemur -30.131 -0.719967 21.6143
rtibia 38.5625
rfoot -4.9177 -22.2385
rtoes -0.225188
lfemur -0.696086 -3.85378 -15.0692
ltibia 56.8037
lfoot 10.5259 6.53399
ltoes -8.44225
252
root 0.130626 17.8738 -5.2608 4.60659 16.3704 -0.97603
lowerback 8.3265 -2.62373 1.56528
upperback -1.7156 -2.98859 5.34375
thorax -6.27524 -1.41673 5.15517
lowerneck -18.3845 -3.45987 2.07576
upperneck 20.1957 -4.81812 -2.46838
head 9.27558 -2.36325 -1.82604
rclavicle -1.41137e-014 2.54444e-014
rhumerus -40.8018 -27.9245 -56.0436
rradius 43.2106
rwrist -9.2964
rhand -12.9062 -1.92129
rfingers 7.12502
rthumb 13.1836 -31.4845
lclavicle -1.41137e-014 2.54444e-014
lhumerus -46.4749 -17.3539 93.0744
lradius 54.3512
lwrist 5.38989
lhand 14.3495 -7.60575
lfingers 7.12502
lthumb 39.239 17.8454
rfemur -28.6491 -0.539295 21.8252
rtibia 37.716
rfoot -5.13316 -22.354
rtoes -0.32877
lfemur -1.87106 -3.14795 -14.983
ltibia 57.9413
lfoot 9.91753 6.63681
ltoes -8.64738
253
root 0.133618 17.9304 -5.05038 4.38129 16.1617 -0.932258
lowerback 8.32392 -2.61447 1.41019
upperback -1.66335 -2.99867 5.3074
thorax -6.21112 -1.41841 5.2022
lowerneck -18.216 -3.47186 2.11992
upperneck 20.1177 -4.84112 -2.48111
head 9.21562 -2.37331 -1.83438
rclavicle -2.00773e-014 4.45278e-014
rhumerus -41.4204 -27.5932 -56.2836
rradius 41.1441
rwrist -9.2041
rhand -12.1501 -2.32229
rfingers 7.12502
rthumb 13.9123 -31.8369
lclavicle -2.00773e-014 4.45278e-014
lhumerus -46.7153 -18.1015 93.3044
lradius 57.0534
lwrist 4.71043
lhand 12.7085 -7.84045
lfingers 7.12502
lthumb 37.6905 18.0423
rfemur -27.198 -0.324391 21.981
rtibia 36.9302
rfoot -5.37603 -22.4836
rtoes -0.408211
lfemur -2.99629 -2.4457 -14.972
ltibia 58.9023
lfoot 9.21242 6.57203
ltoes -8.9923
254
root 0.135563 17.9811 -4.84193 4.16715 15.9279 -0.864274
lowerback 8.32543 -2.59629 1.2187
upperback -1.60755 -3.0014 5.25965
thorax -6.14483 -1.41561 5.2568
lowerneck -18.0155 -3.48728 2.15093
upperneck 20.0179 -4.865 -2.49028
head 9.14277 -2.3847 -1.83807
rclavicle -1.78906e-014 -3.33958e-014
rhumerus -41.9724 -27.2069 -56.5781
rradius 39.1116
rwrist -9.13271
rhand -11.5499 -2.72702
rfingers 7.12502
rthumb 14.4908 -32.201
lclavicle -1.78906e-014 -3.33958e-014
lhumerus -46.898 -18.77 93.4355
lradius 59.6806
lwrist 4.06403
lhand 10.7216 -7.84842
lfingers 7.12502
lthumb 35.8104 18.5144
rfemur -25.7955 -0.0867266 22.1153
rtibia 36.2114
rfoot -5.64146 -22.6311
rtoes -0.479909
lfemur -4.10491 -1.75503 -15.0034
ltibia 59.7148
lfoot 8.34852 6.38725
ltoes -9.4352
255
root 0.137014 18.0259 -4.63612 3.97254 15.6693 -0.800564
lowerback 8.32207 -2.57046 1.03321
upperback -1.54894 -2.99387 5.20433
thorax -6.07437 -1.40837 5.29824
lowerneck -17.8247 -3.50015 2.19293
upperneck 19.9441 -4.88821 -2.50107
head 9.08046 -2.39479 -1.84483
rclavicle -4.17448e-015 -6.36111e-015
rhumerus -42.4494 -26.768 -56.9466
rradius 37.126
rwrist -9.08046
rhand -11.0963 -3.16508
rfingers 7.12502
rthumb 14.9277 -32.6072
lclavicle -4.17448e-015 -6.36111e-015
lhumerus -47.003 -19.3722 93.4661
lradius 62.2451
lwrist 3.48242
lhand 8.5874 -7.56585
lfingers 7.12502
lthumb 33.7853 19.2653
rfemur -24.4635 0.155707 22.261
rtibia 35.5581
rfoot -5.92277 -22.7822
rtoes -0.554775
lfemur -5.22831 -1.0775 -15.0503
ltibia 60.4064
lfoot 7.31564 6.15251
ltoes -9.91721
256
root 0.139361 18.0647 -4.43371 3.80489 15.3889 -0.752358
lowerback 8.3031 -2.54015 0.883325
upperback -1.49141 -2.97694 5.14737
thorax -5.999 -1.39796 5.31572
lowerneck -17.6533 -3.52533 2.18277
upperneck 19.8768 -4.92401 -2.46915
head 9.02638 -2.4098 -1.83075
rclavicle -8.54774e-015 3.18055e-014
rhumerus -42.86 -26.2767 -57.3757
rradius 35.1936
rwrist -8.94714
rhand -10.702 -3.60394
rfingers 7.12502
rthumb 15.3076 -33.0174
lclavicle -8.54774e-015 3.18055e-014
lhumerus -47.0204 -19.9037 93.4065
lradius 64.7383
lwrist 2.95752
lhand 6.3516 -7.07638
lfingers 7.12502
lthumb 31.6583 20.1975
rfemur -23.2147 0.369678 22.4261
rtibia 34.9668
rfoot -6.21578 -22.9094
rtoes -0.646069
lfemur -6.38846 -0.427717 -15.1136
ltibia 60.9967
lfoot 6.10736 5.95892
ltoes -10.5526
257
root 0.142594 18.0975 -4.23439 3.65171 15.099 -0.74887
lowerback 8.27092 -2.50593 0.799064
upperback -1.43124 -2.94767 5.09672
thorax -5.91753 -1.38374 5.30032
lowerneck -17.4843 -3.54863 2.1699
upperneck 19.8006 -4.95729 -2.43328
head 8.97005 -2.42353 -1.81441
rclavicle 1.58034e-014 2.70347e-014
rhumerus -43.2071 -25.7252 -57.8776
rradius 33.34
rwrist -8.72521
rhand -10.3682 -4.07577
rfingers 7.12502
rthumb 15.6291 -33.4644
lclavicle 1.58034e-014 2.70347e-014
lhumerus -46.945 -20.3695 93.2622
lradius 67.1737
lwrist 2.54941
lhand 4.09916 -6.36854
lfingers 7.12502
lthumb 29.5104 21.3063
rfemur -22.0416 0.545549 22.6409
rtibia 34.4351
rfoot -6.51347 -23.0159
rtoes -0.778148
lfemur -7.58677 0.181522 -15.1589
ltibia 61.498
lfoot 4.78311 5.85593
ltoes -11.2923
